<mxfile host="app.diagrams.net" modified="2023-03-17T19:19:38.704Z" agent="5.0 (Windows NT 10.0; Win64; x64) AppleWebKit/537.36 (KHTML, like Gecko) Chrome/111.0.0.0 Safari/537.36" etag="QcNFm_GbRmMEcAi3b6Xm" version="21.0.6" type="github">
  <diagram name="Page-1" id="N3dvxTJim9Qw_t4NZYMy">
    <mxGraphModel dx="794" dy="462" grid="1" gridSize="10" guides="1" tooltips="1" connect="1" arrows="1" fold="1" page="1" pageScale="1" pageWidth="850" pageHeight="1100" math="0" shadow="0">
      <root>
        <mxCell id="0" />
        <mxCell id="1" parent="0" />
        <mxCell id="gmWYAGvhEYk882f-DB5r-1" value="Actor" style="shape=umlActor;verticalLabelPosition=bottom;verticalAlign=top;html=1;" parent="1" vertex="1">
          <mxGeometry x="10" y="170" width="30" height="60" as="geometry" />
        </mxCell>
        <mxCell id="gmWYAGvhEYk882f-DB5r-5" value="" style="swimlane;startSize=0;" parent="1" vertex="1">
          <mxGeometry x="231" y="141" width="140" height="120" as="geometry" />
        </mxCell>
        <mxCell id="gmWYAGvhEYk882f-DB5r-6" value="Controller" style="text;html=1;strokeColor=none;fillColor=none;align=center;verticalAlign=middle;whiteSpace=wrap;rounded=0;" parent="gmWYAGvhEYk882f-DB5r-5" vertex="1">
          <mxGeometry x="40" y="40" width="60" height="30" as="geometry" />
        </mxCell>
        <mxCell id="gmWYAGvhEYk882f-DB5r-8" value="" style="swimlane;startSize=0;" parent="1" vertex="1">
          <mxGeometry x="489" y="141" width="140" height="120" as="geometry" />
        </mxCell>
        <mxCell id="gmWYAGvhEYk882f-DB5r-9" value="Weather Service" style="text;html=1;strokeColor=none;fillColor=none;align=center;verticalAlign=middle;whiteSpace=wrap;rounded=0;" parent="gmWYAGvhEYk882f-DB5r-8" vertex="1">
          <mxGeometry x="40" y="40" width="60" height="30" as="geometry" />
        </mxCell>
        <mxCell id="gmWYAGvhEYk882f-DB5r-11" value="Response" style="text;html=1;strokeColor=none;fillColor=none;align=center;verticalAlign=middle;whiteSpace=wrap;rounded=0;" parent="1" vertex="1">
          <mxGeometry x="102" y="231" width="60" height="30" as="geometry" />
        </mxCell>
        <mxCell id="gmWYAGvhEYk882f-DB5r-7" value="GET" style="text;html=1;strokeColor=none;fillColor=none;align=center;verticalAlign=middle;whiteSpace=wrap;rounded=0;" parent="1" vertex="1">
          <mxGeometry x="110" y="141" width="60" height="20" as="geometry" />
        </mxCell>
        <mxCell id="gmWYAGvhEYk882f-DB5r-17" value="api.weatherapi.com/v1&lt;p style=&quot;text-align:justify;border:none;mso-padding-alt:0cm 0cm 0cm 0cm&quot; class=&quot;Body&quot;&gt;&lt;a href=&quot;https://www.weatherapi.com/docs/&quot;&gt;&lt;/a&gt;&lt;span style=&quot;color:windowtext&quot; lang=&quot;EN-GB&quot;&gt;&lt;/span&gt;&lt;span style=&quot;font-size:11.0pt;font-family:&amp;quot;Calibri&amp;quot;,sans-serif;mso-ascii-theme-font:&lt;br/&gt;minor-latin;mso-hansi-theme-font:minor-latin;mso-bidi-theme-font:minor-latin;&lt;br/&gt;color:windowtext&quot; lang=&quot;EN-GB&quot;&gt;&lt;/span&gt;&lt;/p&gt;" style="text;html=1;strokeColor=none;fillColor=none;align=center;verticalAlign=middle;whiteSpace=wrap;rounded=0;" parent="1" vertex="1">
          <mxGeometry x="120" y="160" width="60" height="30" as="geometry" />
        </mxCell>
        <mxCell id="tqmxq2c59MsWa8xKJlRy-3" value="" style="endArrow=classic;html=1;rounded=0;entryX=0;entryY=0.5;entryDx=0;entryDy=0;" edge="1" parent="1" target="gmWYAGvhEYk882f-DB5r-5">
          <mxGeometry width="50" height="50" relative="1" as="geometry">
            <mxPoint x="60" y="200" as="sourcePoint" />
            <mxPoint x="165" y="181" as="targetPoint" />
          </mxGeometry>
        </mxCell>
        <mxCell id="tqmxq2c59MsWa8xKJlRy-4" value="" style="endArrow=classic;html=1;rounded=0;exitX=1;exitY=0.5;exitDx=0;exitDy=0;entryX=0;entryY=0.5;entryDx=0;entryDy=0;" edge="1" parent="1" source="gmWYAGvhEYk882f-DB5r-5" target="gmWYAGvhEYk882f-DB5r-8">
          <mxGeometry width="50" height="50" relative="1" as="geometry">
            <mxPoint x="380" y="270" as="sourcePoint" />
            <mxPoint x="430" y="220" as="targetPoint" />
          </mxGeometry>
        </mxCell>
        <mxCell id="tqmxq2c59MsWa8xKJlRy-6" value="" style="endArrow=classic;html=1;rounded=0;entryX=1.002;entryY=0.686;entryDx=0;entryDy=0;entryPerimeter=0;" edge="1" parent="1" target="gmWYAGvhEYk882f-DB5r-5">
          <mxGeometry width="50" height="50" relative="1" as="geometry">
            <mxPoint x="490" y="223" as="sourcePoint" />
            <mxPoint x="430" y="220" as="targetPoint" />
          </mxGeometry>
        </mxCell>
        <mxCell id="tqmxq2c59MsWa8xKJlRy-7" value="" style="endArrow=classic;html=1;rounded=0;exitX=-0.024;exitY=0.697;exitDx=0;exitDy=0;exitPerimeter=0;" edge="1" parent="1">
          <mxGeometry width="50" height="50" relative="1" as="geometry">
            <mxPoint x="231" y="222" as="sourcePoint" />
            <mxPoint x="60" y="222" as="targetPoint" />
          </mxGeometry>
        </mxCell>
      </root>
    </mxGraphModel>
  </diagram>
</mxfile>
